<?xml version="1.0" encoding="iso-8859-1"?>
<!-- Generator: Adobe Illustrator 18.1.1, SVG Export Plug-In . SVG Version: 6.00 Build 0)  -->
<svg version="1.1" id="Capa_1" xmlns="http://www.w3.org/2000/svg" xmlns:xlink="http://www.w3.org/1999/xlink" x="0px" y="0px"
	 viewBox="0 0 20.038 20.038" style="enable-background:new 0 0 20.038 20.038;" xml:space="preserve">
<g>
	<path style="fill:#030104;" d="M10.018,0C4.485,0,0.001,4.484,0.001,10.019c0,5.533,4.484,10.019,10.017,10.019
		s10.019-4.485,10.019-10.019C20.036,4.484,15.551,0,10.018,0z M10.112,15.483c-1.359,0-2.461-1.102-2.461-2.46
		c0-1.36,1.102-2.461,2.461-2.461c1.354,0,2.455,1.101,2.455,2.461C12.567,14.382,11.466,15.483,10.112,15.483z M10.112,9.197
		c-1.359,0-2.461-1.1-2.461-2.458c0-1.357,1.102-2.459,2.461-2.459c1.354,0,2.455,1.102,2.455,2.459
		C12.567,8.098,11.466,9.197,10.112,9.197z"/>
</g>
<g>
</g>
<g>
</g>
<g>
</g>
<g>
</g>
<g>
</g>
<g>
</g>
<g>
</g>
<g>
</g>
<g>
</g>
<g>
</g>
<g>
</g>
<g>
</g>
<g>
</g>
<g>
</g>
<g>
</g>
</svg>
